<?xml version="1.0" encoding="UTF-8" standalone="no"?>
<svg
   version="1.1"
   id="Layer_1"
   width="22"
   height="22"
   viewBox="0 0 22 22"
   xml:space="preserve"
   sodipodi:docname="x_twitter.svg"
   inkscape:version="1.1.2 (0a00cf5339, 2022-02-04)"
   xmlns:inkscape="http://www.inkscape.org/namespaces/inkscape"
   xmlns:sodipodi="http://sodipodi.sourceforge.net/DTD/sodipodi-0.dtd"
   xmlns="http://www.w3.org/2000/svg"
   xmlns:svg="http://www.w3.org/2000/svg"><defs
     id="defs11" /><sodipodi:namedview
     id="namedview9"
     pagecolor="#ffffff"
     bordercolor="#666666"
     borderopacity="1.0"
     inkscape:pageshadow="2"
     inkscape:pageopacity="0.0"
     inkscape:pagecheckerboard="0"
     showgrid="false"
     inkscape:zoom="24.601423"
     inkscape:cx="12.499277"
     inkscape:cy="11.401779"
     inkscape:window-width="1920"
     inkscape:window-height="1017"
     inkscape:window-x="0"
     inkscape:window-y="0"
     inkscape:window-maximized="1"
     inkscape:current-layer="Layer_1" /><g
     id="g6"
     transform="translate(-1,-1)"><polygon
       points="5.92041,5.041199 10.956299,12.087097 11.59021,12.97345 15.900635,19.009583 18.068909,19.009583 12.785217,11.615906 12.153992,10.729553 8.088684,5.041199 "
       id="polygon2" /><path
       d="M 21.15979,1 H 2.84021 C 1.823853,1 1,1.823853 1,2.84021 V 21.15979 C 1,22.176147 1.823853,23 2.84021,23 H 21.15979 C 22.176147,23 23,22.176147 23,21.15979 V 2.84021 C 23,1.823853 22.176147,1 21.15979,1 Z M 15.235352,20 10.872803,13.786987 5.411438,20 H 4 L 10.246887,12.895325 4,4 H 8.764648 L 12.894775,9.881958 18.06958,4 h 1.411377 L 13.523987,10.775635 20,20 Z"
       id="path4" /></g></svg>
